<svg xmlns="http://www.w3.org/2000/svg" width="32" height="32" viewBox="0 0 32 32">
  <rect width="32" height="32" rx="4" fill="#0066CC" />
  <path d="M16 4C9.4 4 4 9.4 4 16C4 22.6 9.4 28 16 28C22.6 28 28 22.6 28 16C28 9.4 22.6 4 16 4Z" fill="#FFFFFF" />
  <path d="M16 6C10.5 6 6 10.5 6 16C6 21.5 10.5 26 16 26C21.5 26 26 21.5 26 16C26 10.5 21.5 6 16 6Z" fill="#0066CC" />
  <path d="M15 8H13V12H15V8Z" fill="#FFFFFF" />
  <path d="M19 8H17V12H19V8Z" fill="#FFFFFF" />
  <path d="M13 22V23H19V22H13Z" fill="#FFFFFF" />
  <path d="M11 13H21V20H11V13Z" fill="#FFFFFF" />
  <path d="M13 15H15V18H13V15Z" fill="#0066CC" />
  <path d="M17 15H19V18H17V15Z" fill="#0066CC" />
</svg>