<?xml version="1.0" encoding="UTF-8"?>
<svg width="512" height="512" viewBox="0 0 512 512" fill="none" xmlns="http://www.w3.org/2000/svg">
  <rect width="512" height="512" rx="120" fill="#0066CC"/>
  <path d="M256 80C161.6 80 85.3 156.3 85.3 250.7C85.3 350.4 161.6 426.7 256 426.7C350.4 426.7 426.7 350.4 426.7 250.7C426.7 156.3 350.4 80 256 80Z" fill="#FFFFFF"/>
  <path d="M256 106.7C173.9 106.7 112 168.6 112 250.7C112 332.8 173.9 394.7 256 394.7C338.1 394.7 400 332.8 400 250.7C400 168.6 338.1 106.7 256 106.7Z" fill="#0066CC"/>
  <path d="M240 133.3H210.7V186.7H240V133.3Z" fill="#FFFFFF"/>
  <path d="M301.3 133.3H272V186.7H301.3V133.3Z" fill="#FFFFFF"/>
  <path d="M210.7 346.7V368H301.3V346.7H210.7Z" fill="#FFFFFF"/>
  <path d="M176 200H336V320H176V200Z" fill="#FFFFFF"/>
  <path d="M208 232H240V288H208V232Z" fill="#0066CC"/>
  <path d="M272 232H304V288H272V232Z" fill="#0066CC"/>
</svg>